  0
SECTION
  2
HEADER
  9
$ACADVER
  1
AC1018
  9
$ACADMAINTVER
 70
     0
  9
$DWGCODEPAGE
  3
ANSI_932
  9
$INSBASE
 10
0.0
 20
0.0
 30
0.0
  9
$EXTMIN
 10
1.000000000000000E+20
 20
1.000000000000000E+20
 30
1.000000000000000E+20
  9
$EXTMAX
 10
-1.000000000000000E+20
 20
-1.000000000000000E+20
 30
-1.000000000000000E+20
  9
$LIMMIN
 10
0.0
 20
0.0
  9
$LIMMAX
 10
12.0
 20
9.0
  9
$ORTHOMODE
 70
     0
  9
$REGENMODE
 70
     1
  9
$FILLMODE
 70
     1
  9
$QTEXTMODE
 70
     0
  9
$MIRRTEXT
 70
     1
  9
$LTSCALE
 40
1.0
  9
$ATTMODE
 70
     1
  9
$TEXTSIZE
 40
0.2
  9
$TRACEWID
 40
0.05
  9
$TEXTSTYLE
  7
Standard
  9
$CLAYER
  8
0
  9
$CELTYPE
  6
ByLayer
  9
$CECOLOR
 62
   256
  9
$CELTSCALE
 40
1.0
  9
$DISPSILH
 70
     0
  9
$DIMSCALE
 40
1.0
  9
$DIMASZ
 40
0.18
  9
$DIMEXO
 40
0.0625
  9
$DIMDLI
 40
0.38
  9
$DIMRND
 40
0.0
  9
$DIMDLE
 40
0.0
  9
$DIMEXE
 40
0.18
  9
$DIMTP
 40
0.0
  9
$DIMTM
 40
0.0
  9
$DIMTXT
 40
0.18
  9
$DIMCEN
 40
0.09
  9
$DIMTSZ
 40
0.0
  9
$DIMTOL
 70
     0
  9
$DIMLIM
 70
     0
  9
$DIMTIH
 70
     1
  9
$DIMTOH
 70
     1
  9
$DIMSE1
 70
     0
  9
$DIMSE2
 70
     0
  9
$DIMTAD
 70
     0
  9
$DIMZIN
 70
     0
  9
$DIMBLK
  1

  9
$DIMASO
 70
     1
  9
$DIMSHO
 70
     1
  9
$DIMPOST
  1

  9
$DIMAPOST
  1

  9
$DIMALT
 70
     0
  9
$DIMALTD
 70
     2
  9
$DIMALTF
 40
25.4
  9
$DIMLFAC
 40
1.0
  9
$DIMTOFL
 70
     0
  9
$DIMTVP
 40
0.0
  9
$DIMTIX
 70
     0
  9
$DIMSOXD
 70
     0
  9
$DIMSAH
 70
     0
  9
$DIMBLK1
  1

  9
$DIMBLK2
  1

  9
$DIMSTYLE
  2
Standard
  9
$DIMCLRD
 70
     0
  9
$DIMCLRE
 70
     0
  9
$DIMCLRT
 70
     0
  9
$DIMTFAC
 40
1.0
  9
$DIMGAP
 40
0.09
  9
$DIMJUST
 70
     0
  9
$DIMSD1
 70
     0
  9
$DIMSD2
 70
     0
  9
$DIMTOLJ
 70
     1
  9
$DIMTZIN
 70
     0
  9
$DIMALTZ
 70
     0
  9
$DIMALTTZ
 70
     0
  9
$DIMUPT
 70
     0
  9
$DIMDEC
 70
     4
  9
$DIMTDEC
 70
     4
  9
$DIMALTU
 70
     2
  9
$DIMALTTD
 70
     2
  9
$DIMTXSTY
  7
Standard
  9
$DIMAUNIT
 70
     0
  9
$DIMADEC
 70
     0
  9
$DIMALTRND
 40
0.0
  9
$DIMAZIN
 70
     0
  9
$DIMDSEP
 70
    46
  9
$DIMATFIT
 70
     3
  9
$DIMFRAC
 70
     0
  9
$DIMLDRBLK
  1

  9
$DIMLUNIT
 70
     2
  9
$DIMLWD
 70
    -2
  9
$DIMLWE
 70
    -2
  9
$DIMTMOVE
 70
     0
  9
$LUNITS
 70
     2
  9
$LUPREC
 70
     4
  9
$SKETCHINC
 40
0.1
  9
$FILLETRAD
 40
0.5
  9
$AUNITS
 70
     0
  9
$AUPREC
 70
     0
  9
$MENU
  1
.
  9
$ELEVATION
 40
0.0
  9
$PELEVATION
 40
0.0
  9
$THICKNESS
 40
0.0
  9
$LIMCHECK
 70
     0
  9
$CHAMFERA
 40
0.5
  9
$CHAMFERB
 40
0.5
  9
$CHAMFERC
 40
1.0
  9
$CHAMFERD
 40
0.0
  9
$SKPOLY
 70
     0
  9
$TDCREATE
 40
2456209.871354167
  9
$TDUCREATE
 40
2456209.8296875
  9
$TDUPDATE
 40
2456209.871354178
  9
$TDUUPDATE
 40
2456209.829687512
  9
$TDINDWG
 40
0.0000000116
  9
$TDUSRTIMER
 40
0.0000000116
  9
$USRTIMER
 70
     1
  9
$ANGBASE
 50
0.0
  9
$ANGDIR
 70
     0
  9
$PDMODE
 70
     0
  9
$PDSIZE
 40
0.0
  9
$PLINEWID
 40
0.0
  9
$SPLFRAME
 70
     0
  9
$SPLINETYPE
 70
     6
  9
$SPLINESEGS
 70
     8
  9
$HANDSEED
  5
C5
  9
$SURFTAB1
 70
     6
  9
$SURFTAB2
 70
     6
  9
$SURFTYPE
 70
     6
  9
$SURFU
 70
     6
  9
$SURFV
 70
     6
  9
$UCSBASE
  2

  9
$UCSNAME
  2

  9
$UCSORG
 10
0.0
 20
0.0
 30
0.0
  9
$UCSXDIR
 10
1.0
 20
0.0
 30
0.0
  9
$UCSYDIR
 10
0.0
 20
1.0
 30
0.0
  9
$UCSORTHOREF
  2

  9
$UCSORTHOVIEW
 70
     0
  9
$UCSORGTOP
 10
0.0
 20
0.0
 30
0.0
  9
$UCSORGBOTTOM
 10
0.0
 20
0.0
 30
0.0
  9
$UCSORGLEFT
 10
0.0
 20
0.0
 30
0.0
  9
$UCSORGRIGHT
 10
0.0
 20
0.0
 30
0.0
  9
$UCSORGFRONT
 10
0.0
 20
0.0
 30
0.0
  9
$UCSORGBACK
 10
0.0
 20
0.0
 30
0.0
  9
$PUCSBASE
  2

  9
$PUCSNAME
  2

  9
$PUCSORG
 10
0.0
 20
0.0
 30
0.0
  9
$PUCSXDIR
 10
1.0
 20
0.0
 30
0.0
  9
$PUCSYDIR
 10
0.0
 20
1.0
 30
0.0
  9
$PUCSORTHOREF
  2

  9
$PUCSORTHOVIEW
 70
     0
  9
$PUCSORGTOP
 10
0.0
 20
0.0
 30
0.0
  9
$PUCSORGBOTTOM
 10
0.0
 20
0.0
 30
0.0
  9
$PUCSORGLEFT
 10
0.0
 20
0.0
 30
0.0
  9
$PUCSORGRIGHT
 10
0.0
 20
0.0
 30
0.0
  9
$PUCSORGFRONT
 10
0.0
 20
0.0
 30
0.0
  9
$PUCSORGBACK
 10
0.0
 20
0.0
 30
0.0
  9
$USERI1
 70
     0
  9
$USERI2
 70
     0
  9
$USERI3
 70
     0
  9
$USERI4
 70
     0
  9
$USERI5
 70
     0
  9
$USERR1
 40
0.0
  9
$USERR2
 40
0.0
  9
$USERR3
 40
0.0
  9
$USERR4
 40
0.0
  9
$USERR5
 40
0.0
  9
$WORLDVIEW
 70
     1
  9
$SHADEDGE
 70
     3
  9
$SHADEDIF
 70
    70
  9
$TILEMODE
 70
     1
  9
$MAXACTVP
 70
    64
  9
$PINSBASE
 10
0.0
 20
0.0
 30
0.0
  9
$PLIMCHECK
 70
     0
  9
$PEXTMIN
 10
1.000000000000000E+20
 20
1.000000000000000E+20
 30
1.000000000000000E+20
  9
$PEXTMAX
 10
-1.000000000000000E+20
 20
-1.000000000000000E+20
 30
-1.000000000000000E+20
  9
$PLIMMIN
 10
0.0
 20
0.0
  9
$PLIMMAX
 10
12.0
 20
9.0
  9
$UNITMODE
 70
     0
  9
$VISRETAIN
 70
     1
  9
$PLINEGEN
 70
     0
  9
$PSLTSCALE
 70
     1
  9
$TREEDEPTH
 70
  3020
  9
$CMLSTYLE
  2
Standard
  9
$CMLJUST
 70
     0
  9
$CMLSCALE
 40
1.0
  9
$PROXYGRAPHICS
 70
     1
  9
$MEASUREMENT
 70
     0
  9
$CELWEIGHT
370
    -1
  9
$ENDCAPS
280
     0
  9
$JOINSTYLE
280
     0
  9
$LWDISPLAY
290
     1
  9
$INSUNITS
 70
     1
  9
$HYPERLINKBASE
  1

  9
$STYLESHEET
  1

  9
$XEDIT
290
     1
  9
$CEPSNTYPE
380
     0
  9
$PSTYLEMODE
290
     1
  9
$FINGERPRINTGUID
  2
{CEE7B46D-E66E-2772-3DFA-207AE3036BFD}
  9
$VERSIONGUID
  2
{FAEB1C32-E019-11D5-929B-00C0DF256EC4}
  9
$EXTNAMES
290
     1
  9
$PSVPSCALE
 40
0.0
  9
$OLESTARTUP
290
     0
  9
$SORTENTS
280
   127
  9
$INDEXCTL
280
     0
  9
$HIDETEXT
280
     1
  9
$XCLIPFRAME
290
     0
  9
$HALOGAP
280
     0
  9
$OBSCOLOR
 70
   257
  9
$OBSLTYPE
280
     0
  9
$INTERSECTIONDISPLAY
280
     0
  9
$INTERSECTIONCOLOR
 70
   257
  9
$DIMASSOC
280
     2
  9
$PROJECTNAME
  1

  0
ENDSEC
  0
SECTION
  2
CLASSES
  0
CLASS
  1
ACDBDICTIONARYWDFLT
  2
AcDbDictionaryWithDefault
  3
ObjectDBX Classes
 90
        0
 91
        3
280
     0
281
     0
  0
CLASS
  1
VISUALSTYLE
  2
AcDbVisualStyle
  3
ObjectDBX Classes
 90
     4095
 91
        3
280
     0
281
     0
  0
ENDSEC
  0
SECTION
  2
TABLES
  0
TABLE
  2
VPORT
  5
8
330
0
100
AcDbSymbolTable
 70
     1
  0
VPORT
  5
29
330
8
100
AcDbSymbolTableRecord
100
AcDbViewportTableRecord
  2
*Active
 70
     0
 10
0.0
 20
0.0
 11
1.0
 21
1.0
 12
0.0
 22
0.0
 13
0.0
 23
0.0
 14
0.5
 24
0.5
 15
0.5
 25
0.5
 16
0.0
 26
0.0
 36
1.0
 17
449.9683522846856
 27
300.037697858193
 37
0.0
 40
600.000981604814
 41
1.499997703271919
 42
50.0
 43
0.0
 44
0.0
 50
0.0
 51
0.0
 71
     0
 72
   100
 73
     1
 74
     3
 75
     0
 76
     0
 77
     0
 78
     0
281
     0
 65
     1
110
0.0
120
0.0
130
0.0
111
1.0
121
0.0
131
0.0
112
0.0
122
1.0
132
0.0
 79
     0
146
0.0
  0
ENDTAB
  0
TABLE
  2
LTYPE
  5
5
330
0
100
AcDbSymbolTable
 70
     1
  0
LTYPE
  5
14
330
5
100
AcDbSymbolTableRecord
100
AcDbLinetypeTableRecord
  2
ByBlock
 70
     0
  3

 72
    65
 73
     0
 40
0.0
  0
LTYPE
  5
15
330
5
100
AcDbSymbolTableRecord
100
AcDbLinetypeTableRecord
  2
ByLayer
 70
     0
  3

 72
    65
 73
     0
 40
0.0
  0
LTYPE
  5
16
330
5
100
AcDbSymbolTableRecord
100
AcDbLinetypeTableRecord
  2
Continuous
 70
     0
  3
Solid line
 72
    65
 73
     0
 40
0.0
  0
ENDTAB
  0
TABLE
  2
LAYER
  5
2
330
0
100
AcDbSymbolTable
 70
     2
  0
LAYER
  5
10
330
2
100
AcDbSymbolTableRecord
100
AcDbLayerTableRecord
  2
0
 70
     0
 62
     7
  6
Continuous
370
    -3
390
F
  0
LAYER
  5
3B
330
2
100
AcDbSymbolTableRecord
100
AcDbLayerTableRecord
  2
Layer 1
 70
     0
 62
     7
  6
Continuous
370
    -3
390
F
  0
ENDTAB
  0
TABLE
  2
STYLE
  5
3
330
0
100
AcDbSymbolTable
 70
     1
  0
STYLE
  5
11
330
3
100
AcDbSymbolTableRecord
100
AcDbTextStyleTableRecord
  2
Standard
 70
     0
 40
0.0
 41
1.0
 50
0.0
 71
     0
 42
0.2
  3
txt
  4

  0
ENDTAB
  0
TABLE
  2
VIEW
  5
6
330
0
100
AcDbSymbolTable
 70
     0
  0
ENDTAB
  0
TABLE
  2
UCS
  5
7
330
0
100
AcDbSymbolTable
 70
     0
  0
ENDTAB
  0
TABLE
  2
APPID
  5
9
330
0
100
AcDbSymbolTable
 70
     1
  0
APPID
  5
12
330
9
100
AcDbSymbolTableRecord
100
AcDbRegAppTableRecord
  2
ACAD
 70
     0
  0
ENDTAB
  0
TABLE
  2
DIMSTYLE
  5
A
330
0
100
AcDbSymbolTable
 70
     1
100
AcDbDimStyleTable
  0
DIMSTYLE
105
27
330
A
100
AcDbSymbolTableRecord
100
AcDbDimStyleTableRecord
  2
Standard
 70
     0
340
11
  0
ENDTAB
  0
TABLE
  2
BLOCK_RECORD
  5
1
330
0
100
AcDbSymbolTable
 70
     4
  0
BLOCK_RECORD
  5
1F
330
1
100
AcDbSymbolTableRecord
100
AcDbBlockTableRecord
  2
*Model_Space
340
22
  0
BLOCK_RECORD
  5
1B
330
1
100
AcDbSymbolTableRecord
100
AcDbBlockTableRecord
  2
*Paper_Space
340
1E
  0
BLOCK_RECORD
  5
23
330
1
100
AcDbSymbolTableRecord
100
AcDbBlockTableRecord
  2
*Paper_Space0
340
26
  0
BLOCK_RECORD
  5
3C
330
1
100
AcDbSymbolTableRecord
100
AcDbBlockTableRecord
  2
block 2
340
0
102
{BLKREFS
331
3D
102
}
  0
BLOCK_RECORD
  5
98
330
1
100
AcDbSymbolTableRecord
100
AcDbBlockTableRecord
  2
block 3
340
0
102
{BLKREFS
331
99
102
}
  0
BLOCK_RECORD
  5
AE
330
1
100
AcDbSymbolTableRecord
100
AcDbBlockTableRecord
  2
block 4
340
0
102
{BLKREFS
331
AF
102
}
  0
ENDTAB
  0
ENDSEC
  0
SECTION
  2
BLOCKS
  0
BLOCK
  5
20
330
1F
100
AcDbEntity
  8
0
100
AcDbBlockBegin
  2
*Model_Space
 70
     0
 71
     0
 10
0.0
 20
0.0
 30
0.0
  3
*Model_Space
  1

  0
ENDBLK
  5
21
330
1F
100
AcDbEntity
  8
0
100
AcDbBlockEnd
  0
BLOCK
  5
1C
330
1B
100
AcDbEntity
 67
     1
  8
0
100
AcDbBlockBegin
  2
*Paper_Space
 70
     0
 71
     0
 10
0.0
 20
0.0
 30
0.0
  3
*Paper_Space
  1

  0
ENDBLK
  5
1D
330
1B
100
AcDbEntity
 67
     1
  8
0
100
AcDbBlockEnd
  0
BLOCK
  5
24
330
23
100
AcDbEntity
  8
0
100
AcDbBlockBegin
  2
*Paper_Space0
 70
     0
 71
     0
 10
0.0
 20
0.0
 30
0.0
  3
*Paper_Space0
  1

  0
ENDBLK
  5
25
330
23
100
AcDbEntity
  8
0
100
AcDbBlockEnd
  0
BLOCK
  5
3E
330
3C
100
AcDbEntity
  8
0
100
AcDbBlockBegin
  2
block 2
 70
     0
 71
     0
 10
0.0
 20
0.0
 30
0.0
  3
block 2
  1

  0
POLYLINE
  5
40
330
3C
100
AcDbEntity
  8
Layer 1
 62
     7
420
 16777215
370
    50
100
AcDb2dPolyline
 66
     1
 10
0.0
 20
0.0
 30
0.0
  0
VERTEX
  5
41
330
40
100
AcDbEntity
  8
Layer 1
 62
     7
420
 16777215
370
    50
100
AcDbVertex
100
AcDb2dVertex
 10
194.3689704064405
 20
590.0381033985647
 30
0.0
  0
VERTEX
  5
42
330
40
100
AcDbEntity
  8
Layer 1
 62
     7
420
 16777215
370
    50
100
AcDbVertex
100
AcDb2dVertex
 10
194.3689704064405
 20
580.038362646305
 30
0.0
  0
VERTEX
  5
43
330
40
100
AcDbEntity
  8
Layer 1
 62
     7
420
 16777215
370
    50
100
AcDbVertex
100
AcDb2dVertex
 10
199.3691852923461
 20
580.038362646305
 30
0.0
  0
VERTEX
  5
44
330
40
100
AcDbEntity
  8
Layer 1
 62
     7
420
 16777215
370
    50
100
AcDbVertex
100
AcDb2dVertex
 10
229.3697855882281
 20
554.3382778816866
 30
0.0
  0
VERTEX
  5
45
330
40
100
AcDbEntity
  8
Layer 1
 62
     7
420
 16777215
370
    50
100
AcDbVertex
100
AcDb2dVertex
 10
229.3697855882281
 20
538.6382783791037
 30
0.0
  0
VERTEX
  5
46
330
40
100
AcDbEntity
  8
Layer 1
 62
     7
420
 16777215
370
    50
100
AcDbVertex
100
AcDb2dVertex
 10
219.3690113066411
 20
538.6382783791037
 30
0.0
  0
VERTEX
  5
47
330
40
100
AcDbEntity
  8
Layer 1
 62
     7
420
 16777215
370
    50
100
AcDbVertex
100
AcDb2dVertex
 10
219.3690113066411
 20
533.638063493198
 30
0.0
  0
VERTEX
  5
48
330
40
100
AcDbEntity
  8
Layer 1
 62
     7
420
 16777215
370
    50
100
AcDbVertex
100
AcDb2dVertex
 10
209.3696150641573
 20
533.638063493198
 30
0.0
  0
VERTEX
  5
49
330
40
100
AcDbEntity
  8
Layer 1
 62
     7
420
 16777215
370
    50
100
AcDbVertex
100
AcDb2dVertex
 10
209.3696150641573
 20
538.6382783791037
 30
0.0
  0
VERTEX
  5
4A
330
40
100
AcDbEntity
  8
Layer 1
 62
     7
420
 16777215
370
    50
100
AcDbVertex
100
AcDb2dVertex
 10
199.3691852923461
 20
538.6382783791037
 30
0.0
  0
VERTEX
  5
4B
330
40
100
AcDbEntity
  8
Layer 1
 62
     7
420
 16777215
370
    50
100
AcDbVertex
100
AcDb2dVertex
 10
199.3691852923461
 20
543.6378042454576
 30
0.0
  0
VERTEX
  5
4C
330
40
100
AcDbEntity
  8
Layer 1
 62
     7
420
 16777215
370
    50
100
AcDbVertex
100
AcDb2dVertex
 10
194.3689704064405
 20
543.6378042454576
 30
0.0
  0
VERTEX
  5
4D
330
40
100
AcDbEntity
  8
Layer 1
 62
     7
420
 16777215
370
    50
100
AcDbVertex
100
AcDb2dVertex
 10
194.3689704064405
 20
533.638063493198
 30
0.0
  0
VERTEX
  5
4E
330
40
100
AcDbEntity
  8
Layer 1
 62
     7
420
 16777215
370
    50
100
AcDbVertex
100
AcDb2dVertex
 10
137.9694472657376
 20
533.638063493198
 30
0.0
  0
VERTEX
  5
4F
330
40
100
AcDbEntity
  8
Layer 1
 62
     7
420
 16777215
370
    50
100
AcDbVertex
100
AcDb2dVertex
 10
137.9694472657376
 20
543.6378042454576
 30
0.0
  0
VERTEX
  5
50
330
40
100
AcDbEntity
  8
Layer 1
 62
     7
420
 16777215
370
    50
100
AcDbVertex
100
AcDb2dVertex
 10
132.9694046347199
 20
543.6378042454576
 30
0.0
  0
VERTEX
  5
51
330
40
100
AcDbEntity
  8
Layer 1
 62
     7
420
 16777215
370
    50
100
AcDbVertex
100
AcDb2dVertex
 10
132.9694046347199
 20
538.6382783791037
 30
0.0
  0
VERTEX
  5
52
330
40
100
AcDbEntity
  8
Layer 1
 62
     7
420
 16777215
370
    50
100
AcDbVertex
100
AcDb2dVertex
 10
122.9693193726845
 20
538.6382783791037
 30
0.0
  0
VERTEX
  5
53
330
40
100
AcDbEntity
  8
Layer 1
 62
     7
420
 16777215
370
    50
100
AcDbVertex
100
AcDb2dVertex
 10
122.9693193726845
 20
533.638063493198
 30
0.0
  0
VERTEX
  5
54
330
40
100
AcDbEntity
  8
Layer 1
 62
     7
420
 16777215
370
    50
100
AcDbVertex
100
AcDb2dVertex
 10
112.9690618557612
 20
533.638063493198
 30
0.0
  0
VERTEX
  5
55
330
40
100
AcDbEntity
  8
Layer 1
 62
     7
420
 16777215
370
    50
100
AcDbVertex
100
AcDb2dVertex
 10
112.9690618557612
 20
538.6382783791037
 30
0.0
  0
VERTEX
  5
56
330
40
100
AcDbEntity
  8
Layer 1
 62
     7
420
 16777215
370
    50
100
AcDbVertex
100
AcDb2dVertex
 10
102.9691488486137
 20
538.6382783791037
 30
0.0
  0
VERTEX
  5
57
330
40
100
AcDbEntity
  8
Layer 1
 62
     7
420
 16777215
370
    50
100
AcDbVertex
100
AcDb2dVertex
 10
102.9691488486137
 20
554.3382778816866
 30
0.0
  0
VERTEX
  5
58
330
40
100
AcDbEntity
  8
Layer 1
 62
     7
420
 16777215
370
    50
100
AcDbVertex
100
AcDb2dVertex
 10
132.9694046347199
 20
580.038362646305
 30
0.0
  0
VERTEX
  5
59
330
40
100
AcDbEntity
  8
Layer 1
 62
     7
420
 16777215
370
    50
100
AcDbVertex
100
AcDb2dVertex
 10
137.9694472657376
 20
580.038362646305
 30
0.0
  0
VERTEX
  5
5A
330
40
100
AcDbEntity
  8
Layer 1
 62
     7
420
 16777215
370
    50
100
AcDbVertex
100
AcDb2dVertex
 10
137.9694472657376
 20
590.0381033985647
 30
0.0
  0
VERTEX
  5
5B
330
40
100
AcDbEntity
  8
Layer 1
 62
     7
420
 16777215
370
    50
100
AcDbVertex
100
AcDb2dVertex
 10
194.3689704064405
 20
590.0381033985647
 30
0.0
  0
SEQEND
  5
5C
330
40
100
AcDbEntity
  8
Layer 1
370
    50
  0
SPLINE
  5
5D
330
3C
100
AcDbEntity
  8
Layer 1
 62
     7
420
 16777215
370
    50
100
AcDbSpline
210
0.0
220
0.0
230
1.0
 70
    11
 71
     3
 72
    17
 73
    13
 74
     0
 42
0.0000000001
 43
0.0000000001
 40
0.0
 40
0.0
 40
0.0
 40
0.0
 40
1.0
 40
1.0
 40
1.0
 40
2.0
 40
2.0
 40
2.0
 40
3.0
 40
3.0
 40
3.0
 40
4.0
 40
4.0
 40
4.0
 40
4.0
 10
142.5994863975502
 20
587.9576088625315
 30
0.0
 10
144.0078423610049
 20
587.9576088625315
 30
0.0
 10
145.1495477579934
 20
586.8162479753189
 30
0.0
 10
145.1495477579934
 20
585.4078920118641
 30
0.0
 10
145.1495477579934
 20
583.9995360484094
 30
0.0
 10
144.0078423610049
 20
582.8581751611966
 30
0.0
 10
142.5994863975502
 20
582.8581751611966
 30
0.0
 10
141.1914749438713
 20
582.8581751611966
 30
0.0
 10
140.0497695468828
 20
583.9995360484094
 30
0.0
 10
140.0497695468828
 20
585.4078920118641
 30
0.0
 10
140.0497695468828
 20
586.8162479753189
 30
0.0
 10
141.1914749438713
 20
587.9576088625315
 30
0.0
 10
142.5994863975502
 20
587.9576088625315
 30
0.0
  0
SPLINE
  5
5E
330
3C
100
AcDbEntity
  8
Layer 1
 62
     7
420
 16777215
370
    50
100
AcDbSpline
210
0.0
220
0.0
230
1.0
 70
    11
 71
     3
 72
    17
 73
    13
 74
     0
 42
0.0000000001
 43
0.0000000001
 40
0.0
 40
0.0
 40
0.0
 40
0.0
 40
1.0
 40
1.0
 40
1.0
 40
2.0
 40
2.0
 40
2.0
 40
3.0
 40
3.0
 40
3.0
 40
4.0
 40
4.0
 40
4.0
 40
4.0
 10
189.7394480392916
 20
587.9579533723073
 30
0.0
 10
191.1481485125221
 20
587.9579533723073
 30
0.0
 10
192.2898539095106
 20
586.8162479753189
 30
0.0
 10
192.2898539095106
 20
585.4078920118641
 30
0.0
 10
192.2898539095106
 20
583.9995360484094
 30
0.0
 10
191.1481485125221
 20
582.857486141645
 30
0.0
 10
189.7394480392916
 20
582.857486141645
 30
0.0
 10
188.3310920758368
 20
582.857486141645
 30
0.0
 10
187.1893866788483
 20
583.9995360484094
 30
0.0
 10
187.1893866788483
 20
585.4078920118641
 30
0.0
 10
187.1893866788483
 20
586.8162479753189
 30
0.0
 10
188.3310920758368
 20
587.9579533723073
 30
0.0
 10
189.7394480392916
 20
587.9579533723073
 30
0.0
  0
SPLINE
  5
5F
330
3C
100
AcDbEntity
  8
Layer 1
 62
     7
420
 16777215
370
    50
100
AcDbSpline
210
0.0
220
0.0
230
1.0
 70
    11
 71
     3
 72
    17
 73
    13
 74
     0
 42
0.0000000001
 43
0.0000000001
 40
0.0
 40
0.0
 40
0.0
 40
0.0
 40
1.0
 40
1.0
 40
1.0
 40
2.0
 40
2.0
 40
2.0
 40
3.0
 40
3.0
 40
3.0
 40
4.0
 40
4.0
 40
4.0
 40
4.0
 10
142.5994863975502
 20
540.8173027110143
 30
0.0
 10
144.0078423610049
 20
540.8173027110143
 30
0.0
 10
145.1495477579934
 20
539.6759418238017
 30
0.0
 10
145.1495477579934
 20
538.2675858603469
 30
0.0
 10
145.1495477579934
 20
536.8592298968922
 30
0.0
 10
144.0078423610049
 20
535.7175244999037
 30
0.0
 10
142.5994863975502
 20
535.7175244999037
 30
0.0
 10
141.1914749438713
 20
535.7175244999037
 30
0.0
 10
140.0497695468828
 20
536.8592298968922
 30
0.0
 10
140.0497695468828
 20
538.2675858603469
 30
0.0
 10
140.0497695468828
 20
539.6759418238017
 30
0.0
 10
141.1914749438713
 20
540.8173027110143
 30
0.0
 10
142.5994863975502
 20
540.8173027110143
 30
0.0
  0
SPLINE
  5
60
330
3C
100
AcDbEntity
  8
Layer 1
 62
     7
420
 16777215
370
    50
100
AcDbSpline
210
0.0
220
0.0
230
1.0
 70
    11
 71
     3
 72
    17
 73
    13
 74
     0
 42
0.0000000001
 43
0.0000000001
 40
0.0
 40
0.0
 40
0.0
 40
0.0
 40
1.0
 40
1.0
 40
1.0
 40
2.0
 40
2.0
 40
2.0
 40
3.0
 40
3.0
 40
3.0
 40
4.0
 40
4.0
 40
4.0
 40
4.0
 10
189.7394480392916
 20
540.8176472207901
 30
0.0
 10
191.1481485125221
 20
540.8176472207901
 30
0.0
 10
192.2898539095106
 20
539.6759418238017
 30
0.0
 10
192.2898539095106
 20
538.2675858603469
 30
0.0
 10
192.2898539095106
 20
536.8592298968922
 30
0.0
 10
191.1481485125221
 20
535.7171799901279
 30
0.0
 10
189.7394480392916
 20
535.7171799901279
 30
0.0
 10
188.3310920758368
 20
535.7171799901279
 30
0.0
 10
187.1893866788483
 20
536.8592298968922
 30
0.0
 10
187.1893866788483
 20
538.2675858603469
 30
0.0
 10
187.1893866788483
 20
539.6759418238017
 30
0.0
 10
188.3310920758368
 20
540.8176472207901
 30
0.0
 10
189.7394480392916
 20
540.8176472207901
 30
0.0
  0
SPLINE
  5
61
330
3C
100
AcDbEntity
  8
Layer 1
 62
     7
420
 16777215
370
    50
100
AcDbSpline
210
0.0
220
0.0
230
1.0
 70
    11
 71
     3
 72
    17
 73
    13
 74
     0
 42
0.0000000001
 43
0.0000000001
 40
0.0
 40
0.0
 40
0.0
 40
0.0
 40
1.0
 40
1.0
 40
1.0
 40
2.0
 40
2.0
 40
2.0
 40
3.0
 40
3.0
 40
3.0
 40
4.0
 40
4.0
 40
4.0
 40
4.0
 10
166.1694672184209
 20
580.9385666904604
 30
0.0
 10
176.7180120435238
 20
580.9385666904604
 30
0.0
 10
185.2694336983363
 20
572.3871450356479
 30
0.0
 10
185.2694336983363
 20
561.838600210545
 30
0.0
 10
185.2694336983363
 20
551.2897108756663
 30
0.0
 10
176.7180120435238
 20
542.7382892208539
 30
0.0
 10
166.1694672184209
 20
542.7382892208539
 30
0.0
 10
155.6205778835422
 20
542.7382892208539
 30
0.0
 10
147.0691562287297
 20
551.2897108756663
 30
0.0
 10
147.0691562287297
 20
561.838600210545
 30
0.0
 10
147.0691562287297
 20
572.3871450356479
 30
0.0
 10
155.6205778835422
 20
580.9385666904604
 30
0.0
 10
166.1694672184209
 20
580.9385666904604
 30
0.0
  0
POLYLINE
  5
62
330
3C
100
AcDbEntity
  8
Layer 1
 62
     7
420
 16777215
370
    50
100
AcDb2dPolyline
 66
     1
 10
0.0
 20
0.0
 30
0.0
  0
VERTEX
  5
63
330
62
100
AcDbEntity
  8
Layer 1
 62
     7
420
 16777215
370
    50
100
AcDbVertex
100
AcDb2dVertex
 10
194.3689704064405
 20
569.3385780296276
 30
0.0
  0
VERTEX
  5
64
330
62
100
AcDbEntity
  8
Layer 1
 62
     7
420
 16777215
370
    50
100
AcDbVertex
100
AcDb2dVertex
 10
199.3691852923461
 20
569.3385780296276
 30
0.0
  0
VERTEX
  5
65
330
62
100
AcDbEntity
  8
Layer 1
 62
     7
420
 16777215
370
    50
100
AcDbVertex
100
AcDb2dVertex
 10
199.3691852923461
 20
554.3382778816866
 30
0.0
  0
VERTEX
  5
66
330
62
100
AcDbEntity
  8
Layer 1
 62
     7
420
 16777215
370
    50
100
AcDbVertex
100
AcDb2dVertex
 10
194.3689704064405
 20
554.3382778816866
 30
0.0
  0
VERTEX
  5
67
330
62
100
AcDbEntity
  8
Layer 1
 62
     7
420
 16777215
370
    50
100
AcDbVertex
100
AcDb2dVertex
 10
194.3689704064405
 20
569.3385780296276
 30
0.0
  0
SEQEND
  5
68
330
62
100
AcDbEntity
  8
Layer 1
370
    50
  0
POLYLINE
  5
69
330
3C
100
AcDbEntity
  8
Layer 1
 62
     7
420
 16777215
370
    50
100
AcDb2dPolyline
 66
     1
 10
0.0
 20
0.0
 30
0.0
  0
VERTEX
  5
6A
330
69
100
AcDbEntity
  8
Layer 1
 62
     7
420
 16777215
370
    50
100
AcDbVertex
100
AcDb2dVertex
 10
132.9694046347199
 20
569.3385780296276
 30
0.0
  0
VERTEX
  5
6B
330
69
100
AcDbEntity
  8
Layer 1
 62
     7
420
 16777215
370
    50
100
AcDbVertex
100
AcDb2dVertex
 10
137.9694472657376
 20
569.3385780296276
 30
0.0
  0
VERTEX
  5
6C
330
69
100
AcDbEntity
  8
Layer 1
 62
     7
420
 16777215
370
    50
100
AcDbVertex
100
AcDb2dVertex
 10
137.9694472657376
 20
554.3382778816866
 30
0.0
  0
VERTEX
  5
6D
330
69
100
AcDbEntity
  8
Layer 1
 62
     7
420
 16777215
370
    50
100
AcDbVertex
100
AcDb2dVertex
 10
132.9694046347199
 20
554.3382778816866
 30
0.0
  0
VERTEX
  5
6E
330
69
100
AcDbEntity
  8
Layer 1
 62
     7
420
 16777215
370
    50
100
AcDbVertex
100
AcDb2dVertex
 10
132.9694046347199
 20
569.3385780296276
 30
0.0
  0
SEQEND
  5
6F
330
69
100
AcDbEntity
  8
Layer 1
370
    50
  0
ENDBLK
  5
3F
330
3C
100
AcDbEntity
  8
0
100
AcDbBlockEnd
  0
BLOCK
  5
9A
330
98
100
AcDbEntity
  8
0
100
AcDbBlockBegin
  2
block 3
 70
     0
 71
     0
 10
0.0
 20
0.0
 30
0.0
  3
block 3
  1

  0
POLYLINE
  5
9C
330
98
100
AcDbEntity
  8
Layer 1
 62
     7
420
 16777215
370
    50
100
AcDb2dPolyline
 66
     1
 10
0.0
 20
0.0
 30
0.0
  0
VERTEX
  5
9D
330
9C
100
AcDbEntity
  8
Layer 1
 62
     7
420
 16777215
370
    50
100
AcDbVertex
100
AcDb2dVertex
 10
97.96790043338073
 20
590.0381033985647
 30
0.0
  0
VERTEX
  5
9E
330
9C
100
AcDbEntity
  8
Layer 1
 62
     7
420
 16777215
370
    50
100
AcDbVertex
100
AcDb2dVertex
 10
97.96824494315653
 20
572.5380403174466
 30
0.0
  0
VERTEX
  5
9F
330
9C
100
AcDbEntity
  8
Layer 1
 62
     7
420
 16777215
370
    50
100
AcDbVertex
100
AcDb2dVertex
 10
102.9684598290621
 20
572.5380403174466
 30
0.0
  0
VERTEX
  5
A0
330
9C
100
AcDbEntity
  8
Layer 1
 62
     7
420
 16777215
370
    50
100
AcDbVertex
100
AcDb2dVertex
 10
102.9681153192863
 20
557.5380846792815
 30
0.0
  0
VERTEX
  5
A1
330
9C
100
AcDbEntity
  8
Layer 1
 62
     7
420
 16777215
370
    50
100
AcDbVertex
100
AcDb2dVertex
 10
97.96790043338073
 20
557.5380846792815
 30
0.0
  0
VERTEX
  5
A2
330
9C
100
AcDbEntity
  8
Layer 1
 62
     7
420
 16777215
370
    50
100
AcDbVertex
100
AcDb2dVertex
 10
97.96824494315653
 20
545.0382364840691
 30
0.0
  0
VERTEX
  5
A3
330
9C
100
AcDbEntity
  8
Layer 1
 62
     7
420
 16777215
370
    50
100
AcDbVertex
100
AcDb2dVertex
 10
65.11510370368228
 20
545.0382364840691
 30
0.0
  0
VERTEX
  5
A4
330
9C
100
AcDbEntity
  8
Layer 1
 62
     7
420
 16777215
370
    50
100
AcDbVertex
100
AcDb2dVertex
 10
54.96860178693352
 20
555.0376327265528
 30
0.0
  0
VERTEX
  5
A5
330
9C
100
AcDbEntity
  8
Layer 1
 62
     7
420
 16777215
370
    50
100
AcDbVertex
100
AcDb2dVertex
 10
54.96860178693352
 20
590.0381033985647
 30
0.0
  0
VERTEX
  5
A6
330
9C
100
AcDbEntity
  8
Layer 1
 62
     7
420
 16777215
370
    50
100
AcDbVertex
100
AcDb2dVertex
 10
77.96790216419785
 20
590.0381033985647
 30
0.0
  0
VERTEX
  5
A7
330
9C
100
AcDbEntity
  8
Layer 1
 62
     7
420
 16777215
370
    50
100
AcDbVertex
100
AcDb2dVertex
 10
77.96790216419785
 20
585.037888512659
 30
0.0
  0
VERTEX
  5
A8
330
9C
100
AcDbEntity
  8
Layer 1
 62
     7
420
 16777215
370
    50
100
AcDbVertex
100
AcDb2dVertex
 10
87.96815968112114
 20
585.037888512659
 30
0.0
  0
VERTEX
  5
A9
330
9C
100
AcDbEntity
  8
Layer 1
 62
     7
420
 16777215
370
    50
100
AcDbVertex
100
AcDb2dVertex
 10
87.96781517134535
 20
590.0381033985647
 30
0.0
  0
VERTEX
  5
AA
330
9C
100
AcDbEntity
  8
Layer 1
 62
     7
420
 16777215
370
    50
100
AcDbVertex
100
AcDb2dVertex
 10
97.96790043338073
 20
590.0381033985647
 30
0.0
  0
SEQEND
  5
AB
330
9C
100
AcDbEntity
  8
Layer 1
370
    50
  0
SPLINE
  5
AC
330
98
100
AcDbEntity
  8
Layer 1
 62
     7
420
 16777215
370
    50
100
AcDbSpline
210
0.0
220
0.0
230
1.0
 70
    11
 71
     3
 72
    23
 73
    19
 74
     0
 42
0.0000000001
 43
0.0000000001
 40
0.0
 40
0.0
 40
0.0
 40
0.0
 40
1.0
 40
1.0
 40
1.0
 40
2.0
 40
2.0
 40
2.0
 40
3.0
 40
3.0
 40
3.0
 40
4.0
 40
4.0
 40
4.0
 40
5.0
 40
5.0
 40
5.0
 40
6.0
 40
6.0
 40
6.0
 40
6.0
 10
67.96833366682615
 20
572.0037056551868
 30
0.0
 10
66.31175840991027
 20
572.003361145411
 30
0.0
 10
64.9686870489689
 20
573.346949271016
 30
0.0
 10
64.9686870489689
 20
575.003352273044
 30
0.0
 10
64.96834253919312
 20
576.6607888043994
 30
0.0
 10
66.31141390013448
 20
578.0036879104529
 30
0.0
 10
67.96867817660195
 20
578.0033434006771
 30
0.0
 10
67.96867817660195
 20
578.0033434006771
 30
0.0
 10
82.96846155987924
 20
578.0033434006771
 30
0.0
 10
82.96846155987924
 20
578.0033434006771
 30
0.0
 10
84.62555358145882
 20
578.0036879104529
 30
0.0
 10
85.96862494240018
 20
576.6604442946236
 30
0.0
 10
85.96828043262438
 20
575.0036967828198
 30
0.0
 10
85.96828043262438
 20
573.3472937807918
 30
0.0
 10
84.62555358145882
 20
572.0037056551868
 30
0.0
 10
82.96811705010344
 20
572.0037056551868
 30
0.0
 10
82.96811705010344
 20
572.0037056551868
 30
0.0
 10
67.96833366682615
 20
572.0037056551868
 30
0.0
 10
67.96833366682615
 20
572.0037056551868
 30
0.0
  0
SPLINE
  5
AD
330
98
100
AcDbEntity
  8
Layer 1
 62
     7
420
 16777215
370
    50
100
AcDbSpline
210
0.0
220
0.0
230
1.0
 70
    11
 71
     3
 72
    23
 73
    19
 74
     0
 42
0.0000000001
 43
0.0000000001
 40
0.0
 40
0.0
 40
0.0
 40
0.0
 40
1.0
 40
1.0
 40
1.0
 40
2.0
 40
2.0
 40
2.0
 40
3.0
 40
3.0
 40
3.0
 40
4.0
 40
4.0
 40
4.0
 40
5.0
 40
5.0
 40
5.0
 40
6.0
 40
6.0
 40
6.0
 40
6.0
 10
67.96833366682615
 20
554.6390349159567
 30
0.0
 10
66.31175840991027
 20
554.6383458964051
 30
0.0
 10
64.9686870489689
 20
555.9819340220101
 30
0.0
 10
64.9686870489689
 20
557.6383370240382
 30
0.0
 10
64.96834253919312
 20
559.2961180651693
 30
0.0
 10
66.31141390013448
 20
560.6390171712228
 30
0.0
 10
67.96867817660195
 20
560.6383281516712
 30
0.0
 10
67.96867817660195
 20
560.6383281516712
 30
0.0
 10
82.96846155987924
 20
560.6383281516712
 30
0.0
 10
82.96846155987924
 20
560.6383281516712
 30
0.0
 10
84.62555358145882
 20
560.6383281516712
 30
0.0
 10
85.96862494240018
 20
559.2954290456177
 30
0.0
 10
85.96828043262438
 20
557.6390260435898
 30
0.0
 10
85.96828043262438
 20
555.9826230415617
 30
0.0
 10
84.62555358145882
 20
554.6383458964051
 30
0.0
 10
82.96811705010344
 20
554.6390349159567
 30
0.0
 10
82.96811705010344
 20
554.6390349159567
 30
0.0
 10
67.96833366682615
 20
554.6390349159567
 30
0.0
 10
67.96833366682615
 20
554.6390349159567
 30
0.0
  0
ENDBLK
  5
9B
330
98
100
AcDbEntity
  8
0
100
AcDbBlockEnd
  0
BLOCK
  5
B0
330
AE
100
AcDbEntity
  8
0
100
AcDbBlockBegin
  2
block 4
 70
     0
 71
     0
 10
0.0
 20
0.0
 30
0.0
  3
block 4
  1

  0
POLYLINE
  5
B2
330
AE
100
AcDbEntity
  8
Layer 1
 62
     7
420
 16777215
370
    50
100
AcDb2dPolyline
 66
     1
 10
0.0
 20
0.0
 30
0.0
  0
VERTEX
  5
B3
330
B2
100
AcDbEntity
  8
Layer 1
 62
     7
420
 16777215
370
    50
100
AcDbVertex
100
AcDb2dVertex
 10
234.9701365035706
 20
590.0381033985647
 30
0.0
  0
VERTEX
  5
B4
330
B2
100
AcDbEntity
  8
Layer 1
 62
     7
420
 16777215
370
    50
100
AcDbVertex
100
AcDb2dVertex
 10
234.9701365035706
 20
572.5380403174466
 30
0.0
  0
VERTEX
  5
B5
330
B2
100
AcDbEntity
  8
Layer 1
 62
     7
420
 16777215
370
    50
100
AcDbVertex
100
AcDb2dVertex
 10
229.9695771078892
 20
572.5380403174466
 30
0.0
  0
VERTEX
  5
B6
330
B2
100
AcDbEntity
  8
Layer 1
 62
     7
420
 16777215
370
    50
100
AcDbVertex
100
AcDb2dVertex
 10
229.9695771078892
 20
557.5380846792815
 30
0.0
  0
VERTEX
  5
B7
330
B2
100
AcDbEntity
  8
Layer 1
 62
     7
420
 16777215
370
    50
100
AcDbVertex
100
AcDb2dVertex
 10
234.9701365035706
 20
557.5380846792815
 30
0.0
  0
VERTEX
  5
B8
330
B2
100
AcDbEntity
  8
Layer 1
 62
     7
420
 16777215
370
    50
100
AcDbVertex
100
AcDb2dVertex
 10
234.9701365035706
 20
545.0382364840691
 30
0.0
  0
VERTEX
  5
B9
330
B2
100
AcDbEntity
  8
Layer 1
 62
     7
420
 16777215
370
    50
100
AcDbVertex
100
AcDb2dVertex
 10
267.8225887234933
 20
545.0382364840691
 30
0.0
  0
VERTEX
  5
BA
330
B2
100
AcDbEntity
  8
Layer 1
 62
     7
420
 16777215
370
    50
100
AcDbVertex
100
AcDb2dVertex
 10
277.9694351500178
 20
555.0376327265528
 30
0.0
  0
VERTEX
  5
BB
330
B2
100
AcDbEntity
  8
Layer 1
 62
     7
420
 16777215
370
    50
100
AcDbVertex
100
AcDb2dVertex
 10
277.9694351500178
 20
590.0381033985647
 30
0.0
  0
VERTEX
  5
BC
330
B2
100
AcDbEntity
  8
Layer 1
 62
     7
420
 16777215
370
    50
100
AcDbVertex
100
AcDb2dVertex
 10
254.9699625178656
 20
590.0381033985647
 30
0.0
  0
VERTEX
  5
BD
330
B2
100
AcDbEntity
  8
Layer 1
 62
     7
420
 16777215
370
    50
100
AcDbVertex
100
AcDb2dVertex
 10
254.9699625178656
 20
585.037888512659
 30
0.0
  0
VERTEX
  5
BE
330
B2
100
AcDbEntity
  8
Layer 1
 62
     7
420
 16777215
370
    50
100
AcDbVertex
100
AcDb2dVertex
 10
244.970221765606
 20
585.037888512659
 30
0.0
  0
VERTEX
  5
BF
330
B2
100
AcDbEntity
  8
Layer 1
 62
     7
420
 16777215
370
    50
100
AcDbVertex
100
AcDb2dVertex
 10
244.970221765606
 20
590.0381033985647
 30
0.0
  0
VERTEX
  5
C0
330
B2
100
AcDbEntity
  8
Layer 1
 62
     7
420
 16777215
370
    50
100
AcDbVertex
100
AcDb2dVertex
 10
234.9701365035706
 20
590.0381033985647
 30
0.0
  0
SEQEND
  5
C1
330
B2
100
AcDbEntity
  8
Layer 1
370
    50
  0
SPLINE
  5
C2
330
AE
100
AcDbEntity
  8
Layer 1
 62
     7
420
 16777215
370
    50
100
AcDbSpline
210
0.0
220
0.0
230
1.0
 70
    11
 71
     3
 72
    23
 73
    19
 74
     0
 42
0.0000000001
 43
0.0000000001
 40
0.0
 40
0.0
 40
0.0
 40
0.0
 40
1.0
 40
1.0
 40
1.0
 40
2.0
 40
2.0
 40
2.0
 40
3.0
 40
3.0
 40
3.0
 40
4.0
 40
4.0
 40
4.0
 40
5.0
 40
5.0
 40
5.0
 40
6.0
 40
6.0
 40
6.0
 40
6.0
 10
264.970047779901
 20
572.0037056551868
 30
0.0
 10
266.6261062721532
 20
572.003361145411
 30
0.0
 10
267.9693498879824
 20
573.346949271016
 30
0.0
 10
267.9693498879824
 20
575.003352273044
 30
0.0
 10
267.970038907534
 20
576.6607888043994
 30
0.0
 10
266.6267952917048
 20
578.0036879104529
 30
0.0
 10
264.9690142505736
 20
578.0033434006771
 30
0.0
 10
264.9690142505736
 20
578.0033434006771
 30
0.0
 10
249.96974763196
 20
578.0033434006771
 30
0.0
 10
249.96974763196
 20
578.0033434006771
 30
0.0
 10
248.3126556103804
 20
578.0036879104529
 30
0.0
 10
246.9697565043269
 20
576.6604442946236
 30
0.0
 10
246.9697565043269
 20
575.0036967828198
 30
0.0
 10
246.9697565043269
 20
573.3472937807918
 30
0.0
 10
248.3126556103804
 20
572.0037056551868
 30
0.0
 10
249.96974763196
 20
572.0037056551868
 30
0.0
 10
249.96974763196
 20
572.0037056551868
 30
0.0
 10
264.970047779901
 20
572.0037056551868
 30
0.0
 10
264.970047779901
 20
572.0037056551868
 30
0.0
  0
SPLINE
  5
C3
330
AE
100
AcDbEntity
  8
Layer 1
 62
     7
420
 16777215
370
    50
100
AcDbSpline
210
0.0
220
0.0
230
1.0
 70
    11
 71
     3
 72
    23
 73
    19
 74
     0
 42
0.0000000001
 43
0.0000000001
 40
0.0
 40
0.0
 40
0.0
 40
0.0
 40
1.0
 40
1.0
 40
1.0
 40
2.0
 40
2.0
 40
2.0
 40
3.0
 40
3.0
 40
3.0
 40
4.0
 40
4.0
 40
4.0
 40
5.0
 40
5.0
 40
5.0
 40
6.0
 40
6.0
 40
6.0
 40
6.0
 10
264.970047779901
 20
554.6390349159567
 30
0.0
 10
266.6261062721532
 20
554.6383458964051
 30
0.0
 10
267.9693498879824
 20
555.9819340220101
 30
0.0
 10
267.9693498879824
 20
557.6383370240382
 30
0.0
 10
267.970038907534
 20
559.2961180651693
 30
0.0
 10
266.6267952917048
 20
560.6390171712228
 30
0.0
 10
264.9690142505736
 20
560.6383281516712
 30
0.0
 10
264.9690142505736
 20
560.6383281516712
 30
0.0
 10
249.96974763196
 20
560.6383281516712
 30
0.0
 10
249.96974763196
 20
560.6383281516712
 30
0.0
 10
248.3126556103804
 20
560.6383281516712
 30
0.0
 10
246.9697565043269
 20
559.2954290456177
 30
0.0
 10
246.9697565043269
 20
557.6390260435898
 30
0.0
 10
246.9697565043269
 20
555.9826230415617
 30
0.0
 10
248.3126556103804
 20
554.6383458964051
 30
0.0
 10
249.96974763196
 20
554.6390349159567
 30
0.0
 10
249.96974763196
 20
554.6390349159567
 30
0.0
 10
264.970047779901
 20
554.6390349159567
 30
0.0
 10
264.970047779901
 20
554.6390349159567
 30
0.0
  0
ENDBLK
  5
B1
330
AE
100
AcDbEntity
  8
0
100
AcDbBlockEnd
  0
ENDSEC
  0
SECTION
  2
ENTITIES
  0
INSERT
  5
3D
330
1F
100
AcDbEntity
  8
Layer 1
100
AcDbBlockReference
  2
block 2
 10
0.0
 20
0.0
 30
0.0
  0
POLYLINE
  5
70
330
1F
100
AcDbEntity
  8
Layer 1
 62
     7
420
 16777215
370
    50
100
AcDb2dPolyline
 66
     1
 10
0.0
 20
0.0
 30
0.0
  0
VERTEX
  5
71
330
70
100
AcDbEntity
  8
Layer 1
 62
     7
420
 16777215
370
    50
100
AcDbVertex
100
AcDb2dVertex
 10
322.9696465742892
 20
590.0381033985647
 30
0.0
  0
VERTEX
  5
72
330
70
100
AcDbEntity
  8
Layer 1
 62
     7
420
 16777215
370
    50
100
AcDbVertex
100
AcDb2dVertex
 10
297.9692611643128
 20
590.029146144394
 30
0.0
  0
VERTEX
  5
73
330
70
100
AcDbEntity
  8
Layer 1
 62
     7
420
 16777215
370
    50
100
AcDbVertex
100
AcDb2dVertex
 10
277.969090640242
 20
548.6504214832919
 30
0.0
  0
VERTEX
  5
74
330
70
100
AcDbEntity
  8
Layer 1
 62
     7
420
 16777215
370
    50
100
AcDbVertex
100
AcDb2dVertex
 10
277.969090640242
 20
533.6504658451267
 30
0.0
  0
VERTEX
  5
75
330
70
100
AcDbEntity
  8
Layer 1
 62
     7
420
 16777215
370
    50
100
AcDbVertex
100
AcDb2dVertex
 10
290.5595449064888
 20
533.626350160821
 30
0.0
  0
VERTEX
  5
76
330
70
100
AcDbEntity
  8
Layer 1
 62
     7
420
 16777215
370
    50
100
AcDbVertex
100
AcDb2dVertex
 10
290.5595449064888
 20
538.6262205369508
 30
0.0
  0
VERTEX
  5
77
330
70
100
AcDbEntity
  8
Layer 1
 62
     7
420
 16777215
370
    50
100
AcDbVertex
100
AcDb2dVertex
 10
305.559500544654
 20
538.6262205369508
 30
0.0
  0
VERTEX
  5
78
330
70
100
AcDbEntity
  8
Layer 1
 62
     7
420
 16777215
370
    50
100
AcDbVertex
100
AcDb2dVertex
 10
305.559500544654
 20
533.6260056510451
 30
0.0
  0
VERTEX
  5
79
330
70
100
AcDbEntity
  8
Layer 1
 62
     7
420
 16777215
370
    50
100
AcDbVertex
100
AcDb2dVertex
 10
322.9696465742892
 20
533.638063493198
 30
0.0
  0
VERTEX
  5
7A
330
70
100
AcDbEntity
  8
Layer 1
 62
     7
420
 16777215
370
    50
100
AcDbVertex
100
AcDb2dVertex
 10
322.9696465742892
 20
543.6384932650092
 30
0.0
  0
VERTEX
  5
7B
330
70
100
AcDbEntity
  8
Layer 1
 62
     7
420
 16777215
370
    50
100
AcDbVertex
100
AcDb2dVertex
 10
317.9694316883836
 20
543.6384932650092
 30
0.0
  0
VERTEX
  5
7C
330
70
100
AcDbEntity
  8
Layer 1
 62
     7
420
 16777215
370
    50
100
AcDbVertex
100
AcDb2dVertex
 10
317.9694316883836
 20
554.3382778816866
 30
0.0
  0
VERTEX
  5
7D
330
70
100
AcDbEntity
  8
Layer 1
 62
     7
420
 16777215
370
    50
100
AcDbVertex
100
AcDb2dVertex
 10
322.9696465742892
 20
554.3382778816866
 30
0.0
  0
VERTEX
  5
7E
330
70
100
AcDbEntity
  8
Layer 1
 62
     7
420
 16777215
370
    50
100
AcDbVertex
100
AcDb2dVertex
 10
322.9696465742892
 20
569.3385780296276
 30
0.0
  0
VERTEX
  5
7F
330
70
100
AcDbEntity
  8
Layer 1
 62
     7
420
 16777215
370
    50
100
AcDbVertex
100
AcDb2dVertex
 10
318.0348885457848
 20
569.3385780296276
 30
0.0
  0
VERTEX
  5
80
330
70
100
AcDbEntity
  8
Layer 1
 62
     7
420
 16777215
370
    50
100
AcDbVertex
100
AcDb2dVertex
 10
317.9694316883836
 20
580.038362646305
 30
0.0
  0
VERTEX
  5
81
330
70
100
AcDbEntity
  8
Layer 1
 62
     7
420
 16777215
370
    50
100
AcDbVertex
100
AcDb2dVertex
 10
322.9696465742892
 20
580.038362646305
 30
0.0
  0
VERTEX
  5
82
330
70
100
AcDbEntity
  8
Layer 1
 62
     7
420
 16777215
370
    50
100
AcDbVertex
100
AcDb2dVertex
 10
322.9696465742892
 20
590.0381033985647
 30
0.0
  0
SEQEND
  5
83
330
70
100
AcDbEntity
  8
Layer 1
370
    50
  0
POLYLINE
  5
84
330
1F
100
AcDbEntity
  8
Layer 1
 62
     7
420
 16777215
370
    50
100
AcDb2dPolyline
 66
     1
 10
0.0
 20
0.0
 30
0.0
  0
VERTEX
  5
85
330
84
100
AcDbEntity
  8
Layer 1
 62
     7
420
 16777215
370
    50
100
AcDbVertex
100
AcDb2dVertex
 10
9.968562617550043
 20
590.0377588887889
 30
0.0
  0
VERTEX
  5
86
330
84
100
AcDbEntity
  8
Layer 1
 62
     7
420
 16777215
370
    50
100
AcDbVertex
100
AcDb2dVertex
 10
34.96877577263853
 20
590.0288016346182
 30
0.0
  0
VERTEX
  5
87
330
84
100
AcDbEntity
  8
Layer 1
 62
     7
420
 16777215
370
    50
100
AcDbVertex
100
AcDb2dVertex
 10
54.96894629670931
 20
548.6507659930677
 30
0.0
  0
VERTEX
  5
88
330
84
100
AcDbEntity
  8
Layer 1
 62
     7
420
 16777215
370
    50
100
AcDbVertex
100
AcDb2dVertex
 10
54.96894629670931
 20
533.6508103549024
 30
0.0
  0
VERTEX
  5
89
330
84
100
AcDbEntity
  8
Layer 1
 62
     7
420
 16777215
370
    50
100
AcDbVertex
100
AcDb2dVertex
 10
42.37849203046252
 20
533.6266946705967
 30
0.0
  0
VERTEX
  5
8A
330
84
100
AcDbEntity
  8
Layer 1
 62
     7
420
 16777215
370
    50
100
AcDbVertex
100
AcDb2dVertex
 10
42.37849203046252
 20
538.6262205369508
 30
0.0
  0
VERTEX
  5
8B
330
84
100
AcDbEntity
  8
Layer 1
 62
     7
420
 16777215
370
    50
100
AcDbVertex
100
AcDb2dVertex
 10
27.37853639229733
 20
538.6262205369508
 30
0.0
  0
VERTEX
  5
8C
330
84
100
AcDbEntity
  8
Layer 1
 62
     7
420
 16777215
370
    50
100
AcDbVertex
100
AcDb2dVertex
 10
27.37853639229733
 20
533.6266946705967
 30
0.0
  0
VERTEX
  5
8D
330
84
100
AcDbEntity
  8
Layer 1
 62
     7
420
 16777215
370
    50
100
AcDbVertex
100
AcDb2dVertex
 10
9.968562617550043
 20
533.6384080029738
 30
0.0
  0
VERTEX
  5
8E
330
84
100
AcDbEntity
  8
Layer 1
 62
     7
420
 16777215
370
    50
100
AcDbVertex
100
AcDb2dVertex
 10
9.968562617550043
 20
543.6381487552334
 30
0.0
  0
VERTEX
  5
8F
330
84
100
AcDbEntity
  8
Layer 1
 62
     7
420
 16777215
370
    50
100
AcDbVertex
100
AcDb2dVertex
 10
14.96877750345564
 20
543.6381487552334
 30
0.0
  0
VERTEX
  5
90
330
84
100
AcDbEntity
  8
Layer 1
 62
     7
420
 16777215
370
    50
100
AcDbVertex
100
AcDb2dVertex
 10
14.96877750345564
 20
554.3379333719108
 30
0.0
  0
VERTEX
  5
91
330
84
100
AcDbEntity
  8
Layer 1
 62
     7
420
 16777215
370
    50
100
AcDbVertex
100
AcDb2dVertex
 10
9.968562617550043
 20
554.3379333719108
 30
0.0
  0
VERTEX
  5
92
330
84
100
AcDbEntity
  8
Layer 1
 62
     7
420
 16777215
370
    50
100
AcDbVertex
100
AcDb2dVertex
 10
9.968562617550043
 20
569.3382335198518
 30
0.0
  0
VERTEX
  5
93
330
84
100
AcDbEntity
  8
Layer 1
 62
     7
420
 16777215
370
    50
100
AcDbVertex
100
AcDb2dVertex
 10
14.90314839116647
 20
569.3382335198518
 30
0.0
  0
VERTEX
  5
94
330
84
100
AcDbEntity
  8
Layer 1
 62
     7
420
 16777215
370
    50
100
AcDbVertex
100
AcDb2dVertex
 10
14.96877750345564
 20
580.0387071560808
 30
0.0
  0
VERTEX
  5
95
330
84
100
AcDbEntity
  8
Layer 1
 62
     7
420
 16777215
370
    50
100
AcDbVertex
100
AcDb2dVertex
 10
9.968562617550043
 20
580.0387071560808
 30
0.0
  0
VERTEX
  5
96
330
84
100
AcDbEntity
  8
Layer 1
 62
     7
420
 16777215
370
    50
100
AcDbVertex
100
AcDb2dVertex
 10
9.968562617550043
 20
590.0377588887889
 30
0.0
  0
SEQEND
  5
97
330
84
100
AcDbEntity
  8
Layer 1
370
    50
  0
INSERT
  5
99
330
1F
100
AcDbEntity
  8
Layer 1
100
AcDbBlockReference
  2
block 3
 10
0.0
 20
0.0
 30
0.0
  0
INSERT
  5
AF
330
1F
100
AcDbEntity
  8
Layer 1
100
AcDbBlockReference
  2
block 4
 10
0.0
 20
0.0
 30
0.0
  0
ENDSEC
  0
SECTION
  2
OBJECTS
  0
DICTIONARY
  5
C
330
0
100
AcDbDictionary
281
     1
  3
ACAD_GROUP
350
D
  3
ACAD_LAYOUT
350
1A
  3
ACAD_MLINESTYLE
350
17
  3
ACAD_PLOTSETTINGS
350
19
  3
ACAD_PLOTSTYLENAME
350
E
  3
ACAD_TABLESTYLE
350
C4
  3
ACAD_VISUALSTYLE
350
2A
  0
DICTIONARY
  5
D
102
{ACAD_REACTORS
330
C
102
}
330
C
100
AcDbDictionary
281
     1
  0
DICTIONARY
  5
1A
102
{ACAD_REACTORS
330
C
102
}
330
C
100
AcDbDictionary
281
     1
  3
Layout1
350
1E
  3
Layout2
350
26
  3
Model
350
22
  0
DICTIONARY
  5
17
102
{ACAD_REACTORS
330
C
102
}
330
C
100
AcDbDictionary
281
     1
  3
Standard
350
18
  0
DICTIONARY
  5
19
102
{ACAD_REACTORS
330
C
102
}
330
C
100
AcDbDictionary
281
     1
  0
ACDBDICTIONARYWDFLT
  5
E
102
{ACAD_REACTORS
330
C
102
}
330
C
100
AcDbDictionary
281
     1
  3
Normal
350
F
100
AcDbDictionaryWithDefault
340
F
  0
DICTIONARY
  5
C4
102
{ACAD_REACTORS
330
C
102
}
330
C
100
AcDbDictionary
281
     1
  0
DICTIONARY
  5
2A
102
{ACAD_REACTORS
330
C
102
}
330
C
100
AcDbDictionary
281
     1
  3
2dWireframe
350
2F
  3
3D Hidden
350
31
  3
3dWireframe
350
30
  3
Basic
350
32
  3
Brighten
350
36
  3
ColorChange
350
3A
  3
Conceptual
350
34
  3
Dim
350
35
  3
Facepattern
350
39
  3
Flat
350
2B
  3
FlatWithEdges
350
2C
  3
Gouraud
350
2D
  3
GouraudWithEdges
350
2E
  3
Linepattern
350
38
  3
Realistic
350
33
  3
Thicken
350
37
  0
LAYOUT
  5
1E
102
{ACAD_REACTORS
330
1A
102
}
330
1A
100
AcDbPlotSettings
  1

  2
none_device
  4

  6

 40
0.0
 41
0.0
 42
0.0
 43
0.0
 44
0.0
 45
0.0
 46
0.0
 47
0.0
 48
0.0
 49
0.0
140
0.0
141
0.0
142
1.0
143
1.0
 70
   688
 72
     0
 73
     0
 74
     5
  7

 75
    16
 76
     0
 77
     2
 78
   300
147
1.0
148
0.0
149
0.0
100
AcDbLayout
  1
Layout1
 70
     1
 71
     1
 10
0.0
 20
0.0
 11
12.0
 21
9.0
 12
0.0
 22
0.0
 32
0.0
 14
1.000000000000000E+20
 24
1.000000000000000E+20
 34
1.000000000000000E+20
 15
-1.000000000000000E+20
 25
-1.000000000000000E+20
 35
-1.000000000000000E+20
146
0.0
 13
0.0
 23
0.0
 33
0.0
 16
1.0
 26
0.0
 36
0.0
 17
0.0
 27
1.0
 37
0.0
 76
     0
330
1B
  0
LAYOUT
  5
26
102
{ACAD_REACTORS
330
1A
102
}
330
1A
100
AcDbPlotSettings
  1

  2
none_device
  4

  6

 40
0.0
 41
0.0
 42
0.0
 43
0.0
 44
0.0
 45
0.0
 46
0.0
 47
0.0
 48
0.0
 49
0.0
140
0.0
141
0.0
142
1.0
143
1.0
 70
   688
 72
     0
 73
     0
 74
     5
  7

 75
    16
 76
     0
 77
     2
 78
   300
147
1.0
148
0.0
149
0.0
100
AcDbLayout
  1
Layout2
 70
     1
 71
     2
 10
0.0
 20
0.0
 11
0.0
 21
0.0
 12
0.0
 22
0.0
 32
0.0
 14
0.0
 24
0.0
 34
0.0
 15
0.0
 25
0.0
 35
0.0
146
0.0
 13
0.0
 23
0.0
 33
0.0
 16
1.0
 26
0.0
 36
0.0
 17
0.0
 27
1.0
 37
0.0
 76
     0
330
23
  0
LAYOUT
  5
22
102
{ACAD_REACTORS
330
1A
102
}
330
1A
100
AcDbPlotSettings
  1

  2
none_device
  4

  6

 40
0.0
 41
0.0
 42
0.0
 43
0.0
 44
0.0
 45
0.0
 46
0.0
 47
0.0
 48
0.0
 49
0.0
140
0.0
141
0.0
142
1.0
143
1.0
 70
  1712
 72
     0
 73
     0
 74
     0
  7

 75
     0
 76
     0
 77
     2
 78
   300
147
1.0
148
0.0
149
0.0
100
AcDbLayout
  1
Model
 70
     1
 71
     0
 10
0.0
 20
0.0
 11
12.0
 21
9.0
 12
0.0
 22
0.0
 32
0.0
 14
1.000000000000000E+20
 24
1.000000000000000E+20
 34
1.000000000000000E+20
 15
-1.000000000000000E+20
 25
-1.000000000000000E+20
 35
-1.000000000000000E+20
146
0.0
 13
0.0
 23
0.0
 33
0.0
 16
1.0
 26
0.0
 36
0.0
 17
0.0
 27
1.0
 37
0.0
 76
     0
330
1F
331
29
  0
MLINESTYLE
  5
18
102
{ACAD_REACTORS
330
17
102
}
330
17
100
AcDbMlineStyle
  2
Standard
 70
     0
  3

 62
   256
 51
90.0
 52
90.0
 71
     2
 49
0.5
 62
   256
  6
BYLAYER
 49
-0.5
 62
   256
  6
BYLAYER
  0
ACDBPLACEHOLDER
  5
F
102
{ACAD_REACTORS
330
E
102
}
330
E
  0
VISUALSTYLE
  5
2F
102
{ACAD_REACTORS
330
2A
102
}
330
2A
100
AcDbVisualStyle
  2
2dWireframe
 70
     4
 71
     0
 72
     2
 73
     0
 90
        0
 40
-0.6
 41
-30.0
 62
     5
 63
     7
421
 16777215
 74
     1
 91
        4
 64
     7
 65
   257
 75
     1
175
     1
 42
1.0
 92
        0
 66
   257
 43
1.0
 76
     1
 77
     6
 78
     2
 67
     7
 79
     5
170
     0
171
     0
290
     0
174
     0
 93
        1
 44
0.0
173
     0
291
     0
 45
0.0
1001
ACAD
1000
AcDbSavedByObjectVersion
1070
     0
  0
VISUALSTYLE
  5
31
102
{ACAD_REACTORS
330
2A
102
}
330
2A
100
AcDbVisualStyle
  2
3D Hidden
 70
     6
 71
     1
 72
     2
 73
     2
 90
        0
 40
-0.6
 41
-30.0
 62
     5
 63
     7
421
 16777215
 74
     2
 91
        2
 64
     7
 65
   257
 75
     2
175
     1
 42
40.0
 92
        0
 66
   257
 43
1.0
 76
     1
 77
     6
 78
     2
 67
     7
 79
     3
170
     0
171
     0
290
     0
174
     0
 93
        1
 44
0.0
173
     0
291
     0
 45
0.0
1001
ACAD
1000
AcDbSavedByObjectVersion
1070
     0
  0
VISUALSTYLE
  5
30
102
{ACAD_REACTORS
330
2A
102
}
330
2A
100
AcDbVisualStyle
  2
3dWireframe
 70
     5
 71
     0
 72
     2
 73
     0
 90
        0
 40
-0.6
 41
-30.0
 62
     5
 63
     7
421
 16777215
 74
     1
 91
        4
 64
     7
 65
   257
 75
     1
175
     1
 42
1.0
 92
        0
 66
   257
 43
1.0
 76
     1
 77
     6
 78
     2
 67
     7
 79
     5
170
     0
171
     0
290
     0
174
     0
 93
        1
 44
0.0
173
     0
291
     0
 45
0.0
1001
ACAD
1000
AcDbSavedByObjectVersion
1070
     0
  0
VISUALSTYLE
  5
32
102
{ACAD_REACTORS
330
2A
102
}
330
2A
100
AcDbVisualStyle
  2
Basic
 70
     7
 71
     1
 72
     0
 73
     1
 90
        0
 40
-0.6
 41
-30.0
 62
     5
 63
     7
421
 16777215
 74
     0
 91
        4
 64
     7
 65
   257
 75
     1
175
     1
 42
1.0
 92
        8
 66
     7
 43
1.0
 76
     1
 77
     6
 78
     2
 67
     7
 79
     5
170
     0
171
     0
290
     0
174
     0
 93
        1
 44
0.0
173
     0
291
     1
 45
0.0
1001
ACAD
1000
AcDbSavedByObjectVersion
1070
     0
  0
VISUALSTYLE
  5
36
102
{ACAD_REACTORS
330
2A
102
}
330
2A
100
AcDbVisualStyle
  2
Brighten
 70
    12
 71
     2
 72
     2
 73
     0
 90
        0
 40
-0.6
 41
-30.0
 62
     5
 63
     7
421
 16777215
 74
     1
 91
        4
 64
     7
 65
   257
 75
     1
175
     1
 42
1.0
 92
        8
 66
     7
 43
1.0
 76
     1
 77
     6
 78
     2
 67
     7
 79
     5
170
     0
171
     0
290
     0
174
     0
 93
        1
 44
50.0
173
     0
291
     1
 45
0.0
1001
ACAD
1000
AcDbSavedByObjectVersion
1070
     0
  0
VISUALSTYLE
  5
3A
102
{ACAD_REACTORS
330
2A
102
}
330
2A
100
AcDbVisualStyle
  2
ColorChange
 70
    16
 71
     2
 72
     2
 73
     3
 90
        0
 40
-0.6
 41
-30.0
 62
     5
 63
     8
421
  8421504
 74
     1
 91
        4
 64
     7
 65
   257
 75
     1
175
     1
 42
1.0
 92
        8
 66
     8
424
  8421504
 43
1.0
 76
     1
 77
     6
 78
     2
 67
     7
 79
     5
170
     0
171
     0
290
     0
174
     0
 93
        1
 44
0.0
173
     0
291
     1
 45
0.0
1001
ACAD
1000
AcDbSavedByObjectVersion
1070
     0
  0
VISUALSTYLE
  5
34
102
{ACAD_REACTORS
330
2A
102
}
330
2A
100
AcDbVisualStyle
  2
Conceptual
 70
     9
 71
     3
 72
     2
 73
     0
 90
        0
 40
-0.6
 41
-30.0
 62
     5
 63
     7
421
 16777215
 74
     2
 91
        2
 64
     7
 65
   257
 75
     1
175
     1
 42
40.0
 92
        8
 66
     7
 43
1.0
 76
     1
 77
     6
 78
     2
 67
     7
 79
     3
170
     0
171
     0
290
     0
174
     0
 93
        1
 44
0.0
173
     0
291
     0
 45
0.0
1001
ACAD
1000
AcDbSavedByObjectVersion
1070
     0
  0
VISUALSTYLE
  5
35
102
{ACAD_REACTORS
330
2A
102
}
330
2A
100
AcDbVisualStyle
  2
Dim
 70
    11
 71
     2
 72
     2
 73
     0
 90
        0
 40
-0.6
 41
-30.0
 62
     5
 63
     7
421
 16777215
 74
     1
 91
        4
 64
     7
 65
   257
 75
     1
175
     1
 42
1.0
 92
        8
 66
     7
 43
1.0
 76
     1
 77
     6
 78
     2
 67
     7
 79
     5
170
     0
171
     0
290
     0
174
     0
 93
        1
 44
-50.0
173
     0
291
     1
 45
0.0
1001
ACAD
1000
AcDbSavedByObjectVersion
1070
     0
  0
VISUALSTYLE
  5
39
102
{ACAD_REACTORS
330
2A
102
}
330
2A
100
AcDbVisualStyle
  2
Facepattern
 70
    15
 71
     2
 72
     2
 73
     0
 90
        0
 40
-0.6
 41
-30.0
 62
     5
 63
     7
421
 16777215
 74
     1
 91
        4
 64
     7
 65
   257
 75
     1
175
     1
 42
1.0
 92
        8
 66
     7
 43
1.0
 76
     1
 77
     6
 78
     2
 67
     7
 79
     5
170
     0
171
     0
290
     0
174
     0
 93
        1
 44
0.0
173
     0
291
     1
 45
0.0
1001
ACAD
1000
AcDbSavedByObjectVersion
1070
     0
  0
VISUALSTYLE
  5
2B
102
{ACAD_REACTORS
330
2A
102
}
330
2A
100
AcDbVisualStyle
  2
Flat
 70
     0
 71
     2
 72
     1
 73
     1
 90
        2
 40
-0.6
 41
30.0
 62
     5
 63
     7
421
 16777215
 74
     0
 91
        4
 64
     7
 65
   257
 75
     1
175
     1
 42
1.0
 92
        8
 66
     7
 43
1.0
 76
     1
 77
     6
 78
     2
 67
     7
 79
     5
170
     0
171
     0
290
     0
174
     0
 93
       13
 44
0.0
173
     0
291
     1
 45
0.0
1001
ACAD
1000
AcDbSavedByObjectVersion
1070
     0
  0
VISUALSTYLE
  5
2C
102
{ACAD_REACTORS
330
2A
102
}
330
2A
100
AcDbVisualStyle
  2
FlatWithEdges
 70
     1
 71
     2
 72
     1
 73
     1
 90
        2
 40
-0.6
 41
30.0
 62
     5
 63
     7
421
 16777215
 74
     1
 91
        4
 64
     7
 65
   257
 75
     1
175
     1
 42
1.0
 92
        0
 66
   257
 43
1.0
 76
     1
 77
     6
 78
     2
 67
     7
 79
     5
170
     0
171
     0
290
     0
174
     0
 93
       13
 44
0.0
173
     0
291
     1
 45
0.0
1001
ACAD
1000
AcDbSavedByObjectVersion
1070
     0
  0
VISUALSTYLE
  5
2D
102
{ACAD_REACTORS
330
2A
102
}
330
2A
100
AcDbVisualStyle
  2
Gouraud
 70
     2
 71
     2
 72
     2
 73
     1
 90
        2
 40
-0.6
 41
30.0
 62
     5
 63
     7
421
 16777215
 74
     0
 91
        4
 64
     7
 65
   257
 75
     1
175
     1
 42
1.0
 92
        0
 66
     7
 43
1.0
 76
     1
 77
     6
 78
     2
 67
     7
 79
     5
170
     0
171
     0
290
     0
174
     0
 93
       13
 44
0.0
173
     0
291
     1
 45
0.0
1001
ACAD
1000
AcDbSavedByObjectVersion
1070
     0
  0
VISUALSTYLE
  5
2E
102
{ACAD_REACTORS
330
2A
102
}
330
2A
100
AcDbVisualStyle
  2
GouraudWithEdges
 70
     3
 71
     2
 72
     2
 73
     1
 90
        2
 40
-0.6
 41
30.0
 62
     5
 63
     7
421
 16777215
 74
     1
 91
        4
 64
     7
 65
   257
 75
     1
175
     1
 42
1.0
 92
        0
 66
   257
 43
1.0
 76
     1
 77
     6
 78
     2
 67
     7
 79
     5
170
     0
171
     0
290
     0
174
     0
 93
       13
 44
0.0
173
     0
291
     1
 45
0.0
1001
ACAD
1000
AcDbSavedByObjectVersion
1070
     0
  0
VISUALSTYLE
  5
38
102
{ACAD_REACTORS
330
2A
102
}
330
2A
100
AcDbVisualStyle
  2
Linepattern
 70
    14
 71
     2
 72
     2
 73
     0
 90
        0
 40
-0.6
 41
-30.0
 62
     5
 63
     7
421
 16777215
 74
     1
 91
        4
 64
     7
 65
   257
 75
     7
175
     7
 42
1.0
 92
        8
 66
     7
 43
1.0
 76
     1
 77
     6
 78
     2
 67
     7
 79
     5
170
     0
171
     0
290
     0
174
     0
 93
        1
 44
0.0
173
     0
291
     1
 45
0.0
1001
ACAD
1000
AcDbSavedByObjectVersion
1070
     0
  0
VISUALSTYLE
  5
33
102
{ACAD_REACTORS
330
2A
102
}
330
2A
100
AcDbVisualStyle
  2
Realistic
 70
     8
 71
     2
 72
     2
 73
     0
 90
        0
 40
-0.6
 41
-30.0
 62
     5
 63
     7
421
 16777215
 74
     1
 91
        0
 64
     7
 65
   257
 75
     1
175
     1
 42
1.0
 92
        8
 66
     8
424
  7895160
 43
1.0
 76
     1
 77
     6
 78
     2
 67
     7
 79
     5
170
     0
171
     0
290
     0
174
     0
 93
       13
 44
0.0
173
     0
291
     0
 45
0.0
1001
ACAD
1000
AcDbSavedByObjectVersion
1070
     0
  0
VISUALSTYLE
  5
37
102
{ACAD_REACTORS
330
2A
102
}
330
2A
100
AcDbVisualStyle
  2
Thicken
 70
    13
 71
     2
 72
     2
 73
     0
 90
        0
 40
-0.6
 41
-30.0
 62
     5
 63
     7
421
 16777215
 74
     1
 91
        4
 64
     7
 65
   257
 75
     1
175
     1
 42
1.0
 92
       12
 66
     7
 43
1.0
 76
     1
 77
     6
 78
     2
 67
     7
 79
     5
170
     0
171
     0
290
     0
174
     0
 93
        1
 44
0.0
173
     0
291
     1
 45
0.0
1001
ACAD
1000
AcDbSavedByObjectVersion
1070
     0
  0
ENDSEC
  0
EOF
